<?xml version="1.0" standalone="no"?>
<!DOCTYPE svg PUBLIC "-//W3C//DTD SVG 20010904//EN"
 "http://www.w3.org/TR/2001/REC-SVG-20010904/DTD/svg10.dtd">
<svg version="1.0" xmlns="http://www.w3.org/2000/svg"
 width="366.000000pt" height="366.000000pt" viewBox="0 0 366.000000 366.000000"
 preserveAspectRatio="xMidYMid meet">
<metadata>
Created by potrace 1.11, written by Peter Selinger 2001-2013
</metadata>
<g transform="translate(0.000000,366.000000) scale(0.100000,-0.100000)"
fill="#000000" stroke="none">
<path d="M1828 3614 c-2 -1 -40 -4 -84 -5 -255 -6 -556 -94 -794 -230 -479
-274 -816 -767 -885 -1298 -4 -25 -8 -62 -11 -81 -6 -41 -6 -293 -1 -330 2
-14 8 -54 12 -90 5 -36 9 -67 10 -70 1 -3 7 -32 14 -65 21 -99 88 -289 140
-398 174 -361 489 -668 859 -838 93 -43 308 -114 374 -124 23 -4 45 -8 48 -10
3 -2 30 -6 60 -9 30 -4 71 -9 90 -11 19 -3 90 -6 157 -6 222 0 371 23 578 92
586 195 1024 674 1169 1279 14 58 28 132 32 165 3 33 8 69 10 80 6 25 6 303 0
330 -2 11 -7 46 -11 79 -32 264 -149 560 -315 793 -246 344 -609 590 -1022
692 -130 32 -155 37 -283 46 -44 4 -95 8 -112 9 -18 2 -34 2 -35 0z m292 -93
c662 -115 1195 -603 1370 -1255 10 -39 22 -94 25 -121 4 -28 9 -53 11 -56 22
-37 21 -482 -1 -519 -1 -3 -6 -26 -9 -51 -24 -179 -133 -452 -252 -630 -286
-427 -717 -695 -1224 -762 -133 -17 -372 -13 -480 8 -14 3 -52 10 -85 16 -84
15 -274 79 -376 127 -352 164 -646 457 -818 815 -43 90 -115 294 -125 357 -3
19 -8 46 -11 60 -56 268 -33 601 61 871 223 642 775 1082 1449 1155 28 3 51 7
52 8 2 2 67 2 145 0 92 -1 187 -9 268 -23z"/>
<path d="M1747 3268 l4 -83 -27 34 c-59 73 -114 119 -134 114 -24 -6 -24 -3
-4 -113 10 -53 22 -91 30 -94 22 -8 23 5 9 84 -7 41 -11 76 -10 78 1 1 33 -31
71 -73 38 -41 76 -75 85 -75 17 0 18 21 10 198 -1 6 -9 12 -20 12 -17 0 -18
-7 -14 -82z"/>
<path d="M1932 3333 c-7 -2 -17 -13 -22 -24 -16 -28 3 -56 55 -80 50 -23 61
-42 38 -64 -14 -14 -38 -15 -94 -3 -6 2 -13 -2 -16 -8 -4 -12 41 -24 92 -24
36 0 65 26 65 58 0 25 -11 36 -65 66 -43 23 -50 42 -23 60 12 7 29 7 58 0 45
-13 66 1 25 16 -27 10 -91 12 -113 3z"/>
<path d="M2090 3316 c0 -9 16 -17 39 -21 l38 -6 -23 -87 c-28 -105 -28 -102
-6 -102 14 0 22 16 35 65 31 117 31 117 71 100 22 -10 37 -11 41 -5 7 12 -26
26 -110 46 -33 8 -66 17 -72 19 -7 3 -13 -2 -13 -9z"/>
<path d="M1495 3315 c-5 -2 -36 -11 -67 -19 l-57 -16 33 -98 c18 -53 37 -97
42 -97 30 1 124 30 124 38 0 9 -61 4 -93 -9 -9 -3 -17 3 -21 18 -12 47 -8 55
40 67 28 7 43 16 38 21 -5 5 -26 5 -52 -2 -49 -12 -52 -11 -55 28 -2 25 2 29
42 39 25 6 46 16 49 23 4 12 -3 14 -23 7z"/>
<path d="M1322 3262 c-9 -6 -13 -37 -13 -101 l0 -92 -66 65 c-57 56 -69 63
-86 54 -19 -10 -17 -13 24 -48 24 -20 62 -54 84 -73 43 -40 45 -40 61 -29 12
7 26 232 15 232 -3 0 -12 -4 -19 -8z"/>
<path d="M2330 3221 c-67 -72 -120 -134 -120 -142 0 -16 26 -10 45 11 22 24
36 25 75 5 24 -13 30 -22 30 -49 0 -39 26 -57 32 -23 2 12 5 63 7 114 2 83 1
93 -18 102 -24 13 -21 15 -51 -18z m36 -58 c-2 -45 -3 -48 -26 -45 -40 4 -41
15 -7 54 18 21 32 38 33 38 1 0 0 -21 0 -47z"/>
<path d="M1048 3128 l-66 -42 60 -88 61 -89 26 17 c14 10 41 27 58 38 33 21
42 36 22 36 -5 0 -27 -11 -47 -25 l-37 -26 -22 28 c-13 15 -23 30 -23 33 0 3
18 16 40 30 22 14 40 28 40 32 0 15 -27 8 -60 -17 l-34 -25 -17 27 c-21 31
-16 41 36 69 19 10 35 24 35 31 0 17 5 19 -72 -29z"/>
<path d="M2465 3083 c-26 -48 -44 -91 -41 -100 8 -20 31 -3 53 40 l15 30 25
-26 c24 -23 25 -29 16 -66 -9 -32 -8 -43 3 -52 11 -9 16 -5 25 17 6 16 11 41
11 56 1 21 7 28 26 30 36 4 55 36 39 68 -12 24 -78 75 -108 83 -12 3 -29 -18
-64 -80z m118 19 c47 -49 7 -87 -53 -51 l-31 19 21 30 c12 17 25 30 29 30 4 0
19 -13 34 -28z"/>
<path d="M891 3013 c-40 -32 -63 -80 -50 -105 12 -23 48 -23 110 -1 39 14 51
15 61 5 18 -18 -7 -60 -49 -82 -20 -10 -29 -21 -24 -28 5 -9 19 -4 49 17 66
48 81 98 39 126 -22 14 -28 14 -68 -1 -65 -23 -79 -25 -85 -9 -8 21 13 53 46
70 31 16 40 35 18 35 -7 0 -28 -12 -47 -27z"/>
<path d="M2659 3006 c-9 -19 -6 -33 20 -82 25 -48 28 -61 18 -72 -18 -17 -58
-2 -85 33 -12 15 -26 24 -32 20 -8 -5 -2 -17 17 -37 93 -98 182 -58 119 54
-45 80 -15 106 50 43 19 -19 38 -35 40 -35 13 0 0 30 -23 52 -58 53 -107 63
-124 24z"/>
<path d="M1729 2937 c-23 -29 -69 -118 -68 -134 1 -3 -3 -9 -8 -12 -4 -3 -28
-46 -53 -96 -25 -49 -55 -107 -68 -127 -12 -21 -19 -38 -16 -38 4 0 1 -7 -6
-15 -7 -8 -27 -46 -46 -84 -18 -38 -38 -72 -42 -75 -8 -5 -55 -12 -137 -20
-16 -2 -30 -4 -30 -6 0 -3 -56 -9 -112 -13 -24 -1 -43 -4 -43 -7 0 -3 -17 -7
-37 -8 -40 -2 -84 -8 -118 -15 -11 -3 -49 -8 -84 -12 -85 -10 -116 -19 -142
-44 -18 -16 -21 -28 -17 -64 5 -42 33 -96 51 -97 4 0 37 -28 72 -62 35 -35
107 -103 160 -152 190 -179 216 -206 208 -218 -7 -12 -12 -38 -14 -68 0 -8 -3
-22 -7 -30 -3 -8 -6 -26 -8 -40 -1 -14 -3 -25 -4 -25 -3 0 -8 -40 -12 -92 -1
-13 -5 -23 -9 -23 -3 0 -4 -11 -1 -25 2 -14 0 -25 -6 -25 -6 0 -9 -11 -6 -25
2 -15 1 -31 -3 -38 -4 -7 -8 -20 -9 -29 -1 -10 -3 -19 -4 -20 -1 -2 -4 -16 -6
-33 -2 -16 -6 -43 -9 -60 -10 -49 -8 -121 4 -144 10 -18 21 -21 75 -21 58 0
73 5 192 66 71 37 188 96 259 132 72 36 132 68 135 72 15 20 55 17 98 -9 47
-27 81 -43 94 -45 4 -1 13 -7 19 -14 7 -6 19 -12 26 -12 7 0 13 -5 13 -10 0
-6 3 -9 8 -8 11 4 72 -26 72 -35 0 -5 4 -6 10 -2 5 3 18 -3 29 -14 11 -11 22
-17 25 -13 4 3 19 -3 34 -14 27 -20 56 -35 79 -40 7 -1 27 -13 45 -25 25 -18
49 -25 105 -27 68 -4 72 -3 88 22 10 15 15 29 12 32 -3 3 -2 17 3 30 5 13 6
24 2 24 -5 0 -9 19 -11 43 -1 23 -6 43 -11 45 -5 2 -7 9 -4 15 2 7 -3 46 -11
87 -9 41 -17 92 -18 112 -1 21 -4 38 -7 38 -3 0 -7 17 -8 37 -2 21 -8 56 -13
78 -6 22 -10 50 -10 62 0 12 -3 24 -8 27 -12 8 -4 78 10 87 12 7 162 148 342
322 50 48 94 87 99 87 11 0 38 55 38 78 0 31 -24 71 -50 82 -28 13 -104 27
-200 36 -36 3 -69 9 -75 12 -5 3 -23 7 -40 8 -16 2 -52 6 -80 9 -27 3 -65 6
-82 7 -18 1 -33 5 -33 8 0 4 -12 7 -27 8 -94 4 -153 17 -153 34 0 5 -9 21 -20
35 -11 14 -20 32 -20 40 0 7 -11 30 -24 51 -12 20 -27 48 -31 61 -4 14 -12 29
-16 35 -18 21 -149 287 -149 301 0 8 -4 15 -9 15 -6 0 -18 14 -28 30 -16 27
-22 30 -68 30 -44 0 -53 -4 -76 -33z m152 -88 c16 -18 33 -47 39 -65 7 -19 16
-34 21 -34 5 0 9 -8 9 -19 0 -10 8 -29 19 -42 10 -13 22 -35 26 -48 4 -13 22
-50 41 -82 19 -31 34 -62 34 -69 0 -6 7 -21 15 -34 8 -12 27 -47 43 -77 l27
-54 160 -22 c88 -12 166 -20 173 -18 7 3 20 1 30 -5 9 -5 68 -16 131 -24 147
-20 161 -29 161 -104 0 -52 -3 -59 -28 -76 -16 -11 -37 -32 -48 -48 -10 -15
-23 -28 -28 -28 -5 0 -34 -26 -65 -57 -31 -32 -105 -103 -164 -157 l-107 -99
6 -41 c3 -23 14 -88 25 -146 10 -58 19 -122 19 -142 0 -21 5 -38 11 -38 7 0 9
-10 7 -25 -3 -13 -1 -26 4 -27 16 -6 23 -205 8 -223 -20 -24 -142 -20 -194 6
-22 12 -48 25 -57 29 -159 79 -330 167 -351 182 -31 21 -56 23 -83 4 -39 -26
-377 -196 -391 -196 -8 0 -14 -3 -14 -7 0 -17 -58 -33 -120 -33 -93 0 -105 14
-96 112 4 40 7 80 7 88 1 8 4 24 9 35 14 31 30 122 30 165 0 22 4 40 8 40 5 0
7 13 4 30 -3 19 0 30 7 30 7 0 11 15 11 38 -1 20 3 54 9 76 9 38 8 39 -37 81
-26 24 -88 83 -138 132 -50 48 -128 122 -173 163 l-81 74 0 58 c0 50 3 60 24
73 16 11 126 31 318 57 161 23 299 46 307 52 8 6 31 47 53 91 21 44 47 96 58
115 11 19 20 40 20 47 0 7 4 13 10 13 5 0 15 18 21 40 7 22 16 40 20 40 4 0
13 16 19 35 6 19 15 35 20 35 5 0 11 14 15 31 4 17 20 46 37 65 27 30 36 34
81 34 44 0 54 -4 78 -31z"/>
<path d="M1718 2762 c-12 -15 -36 -57 -53 -93 -16 -35 -33 -66 -37 -69 -3 -3
-10 -18 -13 -33 -4 -15 -11 -27 -15 -27 -5 0 -11 -13 -15 -30 -4 -16 -11 -30
-16 -30 -5 0 -9 -6 -9 -12 0 -13 -6 -26 -58 -118 l-30 -55 -269 -41 c-148 -23
-279 -46 -291 -53 -19 -10 -22 -20 -22 -71 0 -52 3 -61 28 -80 21 -17 194
-179 344 -322 19 -19 20 -14 -13 -185 -11 -56 -22 -121 -25 -145 -3 -23 -9
-59 -14 -78 -11 -39 -13 -160 -4 -184 5 -13 22 -16 78 -16 40 0 76 4 81 9 6 5
103 57 217 115 l207 105 163 -83 c90 -46 190 -97 223 -114 48 -26 71 -32 121
-32 100 0 111 28 73 195 -11 50 -24 122 -29 160 -6 39 -17 108 -25 155 l-16
85 23 19 c13 10 91 82 173 161 83 78 162 154 178 167 23 21 27 33 27 76 0 48
-1 50 -37 65 -21 8 -60 17 -88 21 -213 29 -462 70 -472 78 -13 11 -83 150 -83
166 0 6 -3 12 -7 14 -5 2 -28 44 -53 93 -25 50 -48 92 -51 95 -3 3 -11 21 -18
40 -19 58 -48 80 -102 80 -40 0 -51 -5 -71 -28z m143 -73 c12 -12 24 -36 26
-52 1 -17 7 -33 12 -36 5 -3 21 -31 37 -61 15 -30 30 -57 33 -60 4 -3 8 -14 9
-25 2 -11 7 -22 12 -25 4 -3 20 -32 35 -65 16 -33 33 -63 39 -67 6 -4 7 -8 2
-8 -5 0 -4 -6 3 -13 10 -13 78 -25 356 -63 66 -9 135 -23 153 -31 30 -14 32
-18 32 -67 0 -53 -6 -70 -27 -77 -7 -2 -74 -63 -150 -136 -76 -72 -148 -140
-160 -150 l-23 -18 21 -110 c11 -60 31 -158 45 -218 41 -184 33 -207 -76 -207
-48 0 -71 4 -80 15 -7 8 -23 15 -35 15 -12 0 -28 7 -35 15 -13 16 -130 75
-148 75 -6 0 -17 6 -24 13 -7 7 -39 25 -70 41 l-57 29 -143 -73 c-79 -40 -168
-86 -198 -101 -44 -24 -67 -29 -121 -29 -77 0 -79 2 -79 90 0 59 3 75 41 253
11 54 18 105 15 113 -3 8 -2 13 3 10 5 -3 11 11 13 31 3 25 -1 41 -12 52 -157
150 -295 277 -310 288 -16 11 -20 26 -20 72 0 37 5 63 14 70 15 13 213 51 266
51 19 0 82 8 139 17 l103 18 23 45 c44 89 59 115 65 120 3 3 14 28 25 55 10
28 21 52 24 55 10 9 61 107 61 119 0 49 120 71 161 30z"/>
<path d="M1718 2616 c-10 -7 -18 -21 -18 -31 0 -16 -35 -82 -50 -95 -3 -3 -19
-36 -34 -75 -16 -38 -37 -79 -45 -90 -9 -11 -24 -37 -34 -57 -15 -33 -21 -38
-52 -38 -75 0 -375 -50 -402 -67 -20 -11 -23 -22 -23 -72 0 -33 4 -61 9 -63 5
-1 68 -59 141 -128 73 -69 136 -126 141 -128 11 -4 12 -72 2 -72 -5 0 -9 -23
-10 -51 -1 -28 -12 -95 -23 -150 -12 -55 -20 -124 -18 -156 l3 -58 72 -3 c74
-3 115 11 233 77 19 11 70 36 112 57 l77 36 27 -21 c15 -12 35 -21 45 -21 11
0 19 -4 19 -10 0 -5 12 -13 26 -16 14 -4 58 -24 96 -45 39 -22 77 -39 84 -39
7 0 16 -4 19 -10 9 -14 148 -13 163 2 17 17 15 68 -8 154 -11 41 -23 101 -25
132 -3 31 -11 84 -19 117 -12 51 -12 62 0 70 7 5 73 67 146 137 73 70 139 128
146 128 18 0 16 107 -3 126 -17 18 -344 74 -428 74 -20 0 -30 6 -34 20 -3 11
-9 20 -13 20 -5 0 -13 12 -19 28 -7 15 -20 43 -31 62 -10 19 -19 43 -20 53 0
9 -4 17 -9 17 -5 0 -13 9 -16 21 -8 25 -48 88 -56 89 -24 1 35 -136 64 -148 4
-2 7 -10 7 -18 0 -19 48 -121 68 -144 9 -11 27 -20 41 -20 44 0 327 -48 364
-62 25 -10 27 -14 27 -69 0 -44 -4 -59 -14 -59 -7 0 -26 -16 -40 -35 -15 -19
-32 -35 -39 -35 -7 0 -28 -20 -47 -44 -19 -25 -43 -47 -52 -49 -10 -3 -26 -19
-35 -36 -10 -17 -26 -34 -35 -37 -22 -7 -22 -33 -3 -98 8 -27 15 -65 15 -85 0
-20 9 -65 20 -101 11 -36 20 -82 20 -102 0 -46 -17 -52 -118 -46 -54 3 -84 12
-157 48 -49 24 -91 48 -93 52 -2 4 -12 8 -22 8 -10 0 -28 8 -41 18 -22 19 -24
18 -168 -55 l-145 -73 -83 0 -83 0 0 64 c0 34 4 76 9 92 19 64 32 132 33 177
0 26 4 47 9 47 5 0 9 8 9 18 0 22 -78 112 -97 112 -7 0 -13 3 -13 8 0 7 -15
22 -113 118 -44 44 -47 49 -47 99 0 48 2 53 28 63 47 18 302 62 361 62 24 0
31 6 44 38 8 21 22 44 31 51 9 8 16 20 16 27 0 15 40 105 50 114 17 15 40 63
40 84 0 33 28 40 121 34 62 -5 69 -3 69 13 0 36 -39 59 -99 59 -31 0 -64 -7
-73 -14z"/>
<path d="M1763 2378 c-6 -7 -35 -65 -66 -130 -34 -71 -63 -118 -74 -122 -10
-3 -72 -13 -138 -22 -66 -9 -128 -21 -137 -26 -37 -19 -20 -51 86 -158 l104
-105 -25 -139 c-13 -77 -22 -145 -19 -153 11 -29 74 -13 190 48 l115 60 114
-60 c116 -62 179 -77 190 -47 3 7 -6 78 -19 157 l-25 142 100 95 c88 82 101
98 101 127 0 18 -6 35 -12 38 -7 2 -72 12 -145 22 -73 10 -136 21 -140 24 -4
3 -36 63 -70 134 -59 119 -65 127 -92 127 -16 0 -33 -6 -38 -12z"/>
<path d="M2855 890 c-4 -6 -3 -35 0 -65 4 -30 5 -55 2 -55 -2 0 -24 7 -47 15
-42 15 -91 11 -74 -5 5 -4 37 -17 72 -28 41 -14 71 -31 88 -51 15 -18 31 -28
39 -24 21 7 19 17 -12 54 -15 18 -29 44 -31 58 -2 14 -5 35 -7 46 -2 11 -4 30
-4 43 -1 23 -15 30 -26 12z"/>
<path d="M732 806 c-63 -64 -70 -75 -57 -86 13 -11 21 -8 48 18 l32 31 33 -30
c18 -16 38 -27 44 -23 6 4 -5 20 -28 39 l-38 32 26 28 26 28 38 -31 c57 -47
64 -26 8 24 -27 24 -52 44 -55 44 -3 0 -38 -33 -77 -74z"/>
<path d="M2658 726 c-66 -35 -67 -42 -12 -134 27 -45 54 -81 61 -82 22 0 23
19 3 52 -26 42 -25 43 9 58 27 11 33 9 63 -13 26 -20 37 -23 51 -15 17 9 16
12 -14 34 -18 13 -40 26 -50 29 -11 4 -15 13 -12 24 7 26 -12 57 -37 64 -11 3
-39 -5 -62 -17z m72 -46 c0 -10 -12 -28 -27 -40 l-27 -21 -18 23 c-23 29 -19
49 11 65 30 14 61 1 61 -27z"/>
<path d="M912 729 c-30 -12 -50 -32 -62 -63 -22 -59 35 -136 111 -149 36 -7
85 17 102 50 13 24 14 38 8 89 -2 18 -44 59 -74 72 -33 14 -53 14 -85 1z m106
-42 c46 -50 22 -130 -44 -143 -24 -4 -37 0 -62 21 -49 41 -41 98 19 134 35 22
59 18 87 -12z"/>
<path d="M2493 632 l-52 -27 39 -83 c22 -46 40 -88 40 -93 0 -16 27 -10 77 17
55 29 69 41 60 50 -3 4 -27 -6 -52 -21 -26 -15 -48 -25 -50 -23 -1 1 -10 17
-18 34 l-16 31 40 22 c21 12 39 26 39 32 0 13 -6 12 -50 -11 -39 -20 -39 -20
-50 -1 -17 34 -11 47 30 66 22 10 37 22 34 26 -7 13 -13 11 -71 -19z"/>
<path d="M1158 612 c-44 -5 -88 -56 -88 -101 0 -47 23 -79 73 -101 52 -23 95
-16 130 21 35 38 37 96 5 133 -28 31 -83 53 -120 48z m78 -45 c22 -19 27 -32
26 -63 -2 -68 -68 -105 -120 -68 -36 25 -45 60 -26 101 27 55 76 68 120 30z"/>
<path d="M2406 584 c-11 -10 -15 -33 -15 -72 2 -126 6 -123 -58 -43 -50 63
-83 88 -83 62 0 -9 54 -84 102 -139 28 -33 52 -41 64 -20 7 10 14 228 8 228
-2 0 -10 -7 -18 -16z"/>
<path d="M1362 541 c-8 -4 -72 -171 -72 -187 0 -8 100 -34 131 -34 97 0 141
135 59 183 -43 26 -105 46 -118 38z m90 -46 c9 -3 21 -19 28 -34 25 -61 -24
-126 -88 -116 -60 9 -61 12 -35 97 26 83 25 82 95 53z"/>
<path d="M2190 511 c0 -6 9 -46 21 -89 12 -42 22 -84 23 -92 2 -8 6 -14 9 -12
4 1 14 2 21 2 12 0 13 6 5 28 -5 15 -17 58 -27 97 -12 49 -23 71 -35 73 -9 2
-17 -1 -17 -7z"/>
<path d="M2036 453 c3 -21 9 -65 15 -98 5 -33 9 -64 9 -69 0 -4 21 -5 46 -1
75 11 87 14 98 25 13 13 -27 13 -71 1 -36 -10 -41 -6 -47 36 -19 140 -20 143
-42 143 -10 0 -13 -9 -8 -37z"/>
<path d="M1639 454 c0 -16 -2 -37 -4 -46 -2 -9 -6 -44 -9 -77 l-6 -61 33 -1
c132 -4 181 25 179 105 -2 68 -36 95 -128 103 l-64 6 -1 -29z m133 -21 c25
-23 32 -67 14 -101 -18 -35 -33 -42 -88 -42 l-39 0 6 78 c4 42 9 80 12 84 7
12 76 -2 95 -19z"/>
<path d="M1877 469 c-9 -5 -11 -35 -9 -107 l3 -100 52 3 c29 2 62 3 75 4 12 1
22 6 22 12 0 8 -18 10 -54 7 l-54 -4 -4 38 c-2 26 1 38 9 39 7 1 18 3 23 4 6
1 21 3 35 4 14 0 25 6 25 12 0 6 -15 10 -32 9 -63 -4 -67 -2 -66 30 1 17 5 31
10 31 22 4 50 7 69 8 11 0 17 5 14 11 -7 11 -98 10 -118 -1z"/>
</g>
</svg>
